<mxfile host="app.diagrams.net" modified="2024-03-19T04:30:09.569Z" agent="Mozilla/5.0 (Macintosh; Intel Mac OS X 10_15_7) AppleWebKit/537.36 (KHTML, like Gecko) Chrome/122.0.0.0 Safari/537.36" etag="ATCHirvWIzc4XY5DB3uy" version="24.0.7" type="github">
  <diagram name="第 1 页" id="w9qvFU2rq8Aa3MwLWswK">
    <mxGraphModel dx="420" dy="1146" grid="1" gridSize="10" guides="1" tooltips="1" connect="1" arrows="1" fold="1" page="1" pageScale="1" pageWidth="827" pageHeight="1169" math="0" shadow="0">
      <root>
        <mxCell id="0" />
        <mxCell id="1" parent="0" />
        <mxCell id="nOtRfNLZ3b11A0fir6sg-1" style="edgeStyle=orthogonalEdgeStyle;rounded=0;orthogonalLoop=1;jettySize=auto;html=1;exitX=0.5;exitY=0.5;exitDx=0;exitDy=0;exitPerimeter=0;dashed=1;endArrow=none;endFill=0;" edge="1" parent="1" source="nOtRfNLZ3b11A0fir6sg-2">
          <mxGeometry relative="1" as="geometry">
            <mxPoint x="2565" y="1240" as="targetPoint" />
          </mxGeometry>
        </mxCell>
        <mxCell id="nOtRfNLZ3b11A0fir6sg-2" value="系统管理员" style="shape=umlActor;verticalLabelPosition=bottom;verticalAlign=top;html=1;outlineConnect=0;fontSize=15;" vertex="1" parent="1">
          <mxGeometry x="2550" y="350" width="30" height="60" as="geometry" />
        </mxCell>
        <mxCell id="nOtRfNLZ3b11A0fir6sg-3" style="edgeStyle=orthogonalEdgeStyle;rounded=0;orthogonalLoop=1;jettySize=auto;html=1;exitX=0.5;exitY=1;exitDx=0;exitDy=0;dashed=1;endArrow=none;endFill=0;" edge="1" parent="1" source="nOtRfNLZ3b11A0fir6sg-4">
          <mxGeometry relative="1" as="geometry">
            <mxPoint x="2725" y="1240" as="targetPoint" />
          </mxGeometry>
        </mxCell>
        <mxCell id="nOtRfNLZ3b11A0fir6sg-4" value="物料组件管理" style="rounded=0;whiteSpace=wrap;html=1;fontSize=15;" vertex="1" parent="1">
          <mxGeometry x="2675" y="370" width="100" height="40" as="geometry" />
        </mxCell>
        <mxCell id="nOtRfNLZ3b11A0fir6sg-5" style="edgeStyle=orthogonalEdgeStyle;rounded=0;orthogonalLoop=1;jettySize=auto;html=1;exitX=0.5;exitY=1;exitDx=0;exitDy=0;dashed=1;endArrow=none;endFill=0;" edge="1" parent="1" source="nOtRfNLZ3b11A0fir6sg-15">
          <mxGeometry relative="1" as="geometry">
            <mxPoint x="2875" y="1240" as="targetPoint" />
          </mxGeometry>
        </mxCell>
        <mxCell id="nOtRfNLZ3b11A0fir6sg-6" value="模版管理" style="rounded=0;whiteSpace=wrap;html=1;fontSize=15;" vertex="1" parent="1">
          <mxGeometry x="2830" y="370" width="90" height="40" as="geometry" />
        </mxCell>
        <mxCell id="nOtRfNLZ3b11A0fir6sg-7" style="edgeStyle=orthogonalEdgeStyle;rounded=0;orthogonalLoop=1;jettySize=auto;html=1;exitX=0.5;exitY=1;exitDx=0;exitDy=0;dashed=1;endArrow=none;endFill=0;" edge="1" parent="1" source="nOtRfNLZ3b11A0fir6sg-31">
          <mxGeometry relative="1" as="geometry">
            <mxPoint x="3015" y="1240" as="targetPoint" />
          </mxGeometry>
        </mxCell>
        <mxCell id="nOtRfNLZ3b11A0fir6sg-8" value="模版库" style="rounded=0;whiteSpace=wrap;html=1;fontSize=15;" vertex="1" parent="1">
          <mxGeometry x="2970" y="370" width="90" height="40" as="geometry" />
        </mxCell>
        <mxCell id="nOtRfNLZ3b11A0fir6sg-36" style="edgeStyle=orthogonalEdgeStyle;rounded=0;orthogonalLoop=1;jettySize=auto;html=1;exitX=0.5;exitY=1;exitDx=0;exitDy=0;dashed=1;endArrow=none;endFill=0;" edge="1" parent="1" source="nOtRfNLZ3b11A0fir6sg-10">
          <mxGeometry relative="1" as="geometry">
            <mxPoint x="3155" y="1240" as="targetPoint" />
          </mxGeometry>
        </mxCell>
        <mxCell id="nOtRfNLZ3b11A0fir6sg-10" value="活动页面设计" style="rounded=0;whiteSpace=wrap;html=1;fontSize=15;" vertex="1" parent="1">
          <mxGeometry x="3100" y="370" width="110" height="40" as="geometry" />
        </mxCell>
        <mxCell id="nOtRfNLZ3b11A0fir6sg-11" value="" style="html=1;points=[[0,0,0,0,5],[0,1,0,0,-5],[1,0,0,0,5],[1,1,0,0,-5]];perimeter=orthogonalPerimeter;outlineConnect=0;targetShapes=umlLifeline;portConstraint=eastwest;newEdgeStyle={&quot;curved&quot;:0,&quot;rounded&quot;:0};fontSize=15;" vertex="1" parent="1">
          <mxGeometry x="2560" y="545" width="10" height="505" as="geometry" />
        </mxCell>
        <mxCell id="nOtRfNLZ3b11A0fir6sg-12" value="" style="html=1;points=[[0,0,0,0,5],[0,1,0,0,-5],[1,0,0,0,5],[1,1,0,0,-5]];perimeter=orthogonalPerimeter;outlineConnect=0;targetShapes=umlLifeline;portConstraint=eastwest;newEdgeStyle={&quot;curved&quot;:0,&quot;rounded&quot;:0};fontSize=15;" vertex="1" parent="1">
          <mxGeometry x="2720" y="550" width="10" height="400" as="geometry" />
        </mxCell>
        <mxCell id="nOtRfNLZ3b11A0fir6sg-13" value="" style="html=1;points=[[0,0,0,0,5],[0,1,0,0,-5],[1,0,0,0,5],[1,1,0,0,-5]];perimeter=orthogonalPerimeter;outlineConnect=0;targetShapes=umlLifeline;portConstraint=eastwest;newEdgeStyle={&quot;curved&quot;:0,&quot;rounded&quot;:0};fontSize=15;" vertex="1" parent="1">
          <mxGeometry x="3150" y="555" width="10" height="445" as="geometry" />
        </mxCell>
        <mxCell id="nOtRfNLZ3b11A0fir6sg-14" value="" style="edgeStyle=orthogonalEdgeStyle;rounded=0;orthogonalLoop=1;jettySize=auto;html=1;exitX=0.5;exitY=1;exitDx=0;exitDy=0;dashed=1;endArrow=none;endFill=0;fontSize=15;" edge="1" parent="1" source="nOtRfNLZ3b11A0fir6sg-6" target="nOtRfNLZ3b11A0fir6sg-15">
          <mxGeometry relative="1" as="geometry">
            <mxPoint x="2875" y="1170" as="targetPoint" />
            <mxPoint x="2875" y="410" as="sourcePoint" />
            <Array as="points">
              <mxPoint x="2875" y="540" />
              <mxPoint x="2875" y="540" />
            </Array>
          </mxGeometry>
        </mxCell>
        <mxCell id="nOtRfNLZ3b11A0fir6sg-15" value="" style="html=1;points=[[0,0,0,0,5],[0,1,0,0,-5],[1,0,0,0,5],[1,1,0,0,-5]];perimeter=orthogonalPerimeter;outlineConnect=0;targetShapes=umlLifeline;portConstraint=eastwest;newEdgeStyle={&quot;curved&quot;:0,&quot;rounded&quot;:0};fontSize=15;" vertex="1" parent="1">
          <mxGeometry x="2870" y="560" width="10" height="580" as="geometry" />
        </mxCell>
        <mxCell id="nOtRfNLZ3b11A0fir6sg-16" value="新增模版" style="html=1;verticalAlign=bottom;endArrow=block;curved=0;rounded=0;fontSize=15;" edge="1" parent="1">
          <mxGeometry width="80" relative="1" as="geometry">
            <mxPoint x="2570" y="574.5" as="sourcePoint" />
            <mxPoint x="2870" y="574.5" as="targetPoint" />
          </mxGeometry>
        </mxCell>
        <mxCell id="nOtRfNLZ3b11A0fir6sg-17" value="设计模版活动后页面" style="html=1;verticalAlign=bottom;endArrow=block;curved=0;rounded=0;fontSize=15;" edge="1" parent="1">
          <mxGeometry width="80" relative="1" as="geometry">
            <mxPoint x="2570" y="639" as="sourcePoint" />
            <mxPoint x="3150" y="639" as="targetPoint" />
            <mxPoint as="offset" />
          </mxGeometry>
        </mxCell>
        <mxCell id="nOtRfNLZ3b11A0fir6sg-18" value="获取物料组件" style="html=1;verticalAlign=bottom;endArrow=block;curved=0;rounded=0;fontSize=15;" edge="1" parent="1">
          <mxGeometry width="80" relative="1" as="geometry">
            <mxPoint x="3150" y="670" as="sourcePoint" />
            <mxPoint x="2730" y="670" as="targetPoint" />
            <mxPoint as="offset" />
          </mxGeometry>
        </mxCell>
        <mxCell id="nOtRfNLZ3b11A0fir6sg-19" value="返回物料组件列表" style="html=1;verticalAlign=bottom;endArrow=open;dashed=1;endSize=8;curved=0;rounded=0;fontSize=15;" edge="1" parent="1">
          <mxGeometry relative="1" as="geometry">
            <mxPoint x="2730" y="722.5" as="sourcePoint" />
            <mxPoint x="3150" y="722.5" as="targetPoint" />
            <mxPoint as="offset" />
          </mxGeometry>
        </mxCell>
        <mxCell id="nOtRfNLZ3b11A0fir6sg-20" value="" style="endArrow=classic;html=1;rounded=0;fontSize=15;" edge="1" parent="1">
          <mxGeometry width="50" height="50" relative="1" as="geometry">
            <mxPoint x="3160" y="740" as="sourcePoint" />
            <mxPoint x="3160" y="770" as="targetPoint" />
            <Array as="points">
              <mxPoint x="3190" y="740" />
              <mxPoint x="3190" y="770" />
              <mxPoint x="3160" y="770" />
            </Array>
          </mxGeometry>
        </mxCell>
        <mxCell id="nOtRfNLZ3b11A0fir6sg-21" value="页面设计" style="text;html=1;align=center;verticalAlign=middle;whiteSpace=wrap;rounded=0;fontSize=15;" vertex="1" parent="1">
          <mxGeometry x="3200" y="742.5" width="60" height="30" as="geometry" />
        </mxCell>
        <mxCell id="nOtRfNLZ3b11A0fir6sg-22" value="保存设计结果" style="html=1;verticalAlign=bottom;endArrow=open;dashed=1;endSize=8;curved=0;rounded=0;fontSize=15;" edge="1" parent="1" target="nOtRfNLZ3b11A0fir6sg-11">
          <mxGeometry relative="1" as="geometry">
            <mxPoint x="3150" y="800" as="sourcePoint" />
            <mxPoint x="2880" y="800" as="targetPoint" />
          </mxGeometry>
        </mxCell>
        <mxCell id="nOtRfNLZ3b11A0fir6sg-23" value="返回新增成功" style="html=1;verticalAlign=bottom;endArrow=open;dashed=1;endSize=8;curved=0;rounded=0;fontSize=15;" edge="1" parent="1" source="nOtRfNLZ3b11A0fir6sg-15">
          <mxGeometry relative="1" as="geometry">
            <mxPoint x="2650" y="609.5" as="sourcePoint" />
            <mxPoint x="2570" y="609.5" as="targetPoint" />
          </mxGeometry>
        </mxCell>
        <mxCell id="nOtRfNLZ3b11A0fir6sg-24" value="上架模版" style="html=1;verticalAlign=bottom;endArrow=block;curved=0;rounded=0;fontSize=15;" edge="1" parent="1" target="nOtRfNLZ3b11A0fir6sg-15">
          <mxGeometry width="80" relative="1" as="geometry">
            <mxPoint x="2570" y="854.5" as="sourcePoint" />
            <mxPoint x="2650" y="854.5" as="targetPoint" />
          </mxGeometry>
        </mxCell>
        <mxCell id="nOtRfNLZ3b11A0fir6sg-25" value="上架成功" style="html=1;verticalAlign=bottom;endArrow=open;dashed=1;endSize=8;curved=0;rounded=0;fontSize=15;" edge="1" parent="1">
          <mxGeometry relative="1" as="geometry">
            <mxPoint x="2870" y="934.5" as="sourcePoint" />
            <mxPoint x="2570" y="934.5" as="targetPoint" />
            <mxPoint as="offset" />
          </mxGeometry>
        </mxCell>
        <mxCell id="nOtRfNLZ3b11A0fir6sg-26" style="edgeStyle=orthogonalEdgeStyle;rounded=0;orthogonalLoop=1;jettySize=auto;html=1;exitX=0.5;exitY=0.5;exitDx=0;exitDy=0;exitPerimeter=0;dashed=1;endArrow=none;endFill=0;" edge="1" parent="1" source="nOtRfNLZ3b11A0fir6sg-29">
          <mxGeometry relative="1" as="geometry">
            <mxPoint x="2475" y="1240" as="targetPoint" />
            <Array as="points">
              <mxPoint x="2475" y="1100" />
              <mxPoint x="2475" y="1100" />
            </Array>
          </mxGeometry>
        </mxCell>
        <mxCell id="nOtRfNLZ3b11A0fir6sg-27" value="系统用户" style="shape=umlActor;verticalLabelPosition=bottom;verticalAlign=top;html=1;outlineConnect=0;fontSize=15;" vertex="1" parent="1">
          <mxGeometry x="2460" y="350" width="30" height="60" as="geometry" />
        </mxCell>
        <mxCell id="nOtRfNLZ3b11A0fir6sg-28" value="" style="edgeStyle=orthogonalEdgeStyle;rounded=0;orthogonalLoop=1;jettySize=auto;html=1;exitX=0.5;exitY=0.5;exitDx=0;exitDy=0;exitPerimeter=0;dashed=1;endArrow=none;endFill=0;fontSize=15;" edge="1" parent="1" source="nOtRfNLZ3b11A0fir6sg-27" target="nOtRfNLZ3b11A0fir6sg-29">
          <mxGeometry relative="1" as="geometry">
            <mxPoint x="2475" y="1220" as="targetPoint" />
            <mxPoint x="2475" y="380" as="sourcePoint" />
            <Array as="points">
              <mxPoint x="2475" y="880" />
              <mxPoint x="2475" y="880" />
            </Array>
          </mxGeometry>
        </mxCell>
        <mxCell id="nOtRfNLZ3b11A0fir6sg-29" value="" style="html=1;points=[[0,0,0,0,5],[0,1,0,0,-5],[1,0,0,0,5],[1,1,0,0,-5]];perimeter=orthogonalPerimeter;outlineConnect=0;targetShapes=umlLifeline;portConstraint=eastwest;newEdgeStyle={&quot;curved&quot;:0,&quot;rounded&quot;:0};fontSize=15;" vertex="1" parent="1">
          <mxGeometry x="2470" y="1000" width="10" height="140" as="geometry" />
        </mxCell>
        <mxCell id="nOtRfNLZ3b11A0fir6sg-30" value="" style="edgeStyle=orthogonalEdgeStyle;rounded=0;orthogonalLoop=1;jettySize=auto;html=1;exitX=0.5;exitY=1;exitDx=0;exitDy=0;dashed=1;endArrow=none;endFill=0;fontSize=15;" edge="1" parent="1" source="nOtRfNLZ3b11A0fir6sg-8" target="nOtRfNLZ3b11A0fir6sg-31">
          <mxGeometry relative="1" as="geometry">
            <mxPoint x="3015" y="1190" as="targetPoint" />
            <mxPoint x="3015" y="410" as="sourcePoint" />
            <Array as="points">
              <mxPoint x="3015" y="920" />
              <mxPoint x="3015" y="920" />
            </Array>
          </mxGeometry>
        </mxCell>
        <mxCell id="nOtRfNLZ3b11A0fir6sg-31" value="" style="html=1;points=[[0,0,0,0,5],[0,1,0,0,-5],[1,0,0,0,5],[1,1,0,0,-5]];perimeter=orthogonalPerimeter;outlineConnect=0;targetShapes=umlLifeline;portConstraint=eastwest;newEdgeStyle={&quot;curved&quot;:0,&quot;rounded&quot;:0};fontSize=15;" vertex="1" parent="1">
          <mxGeometry x="3010" y="1010" width="10" height="120" as="geometry" />
        </mxCell>
        <mxCell id="nOtRfNLZ3b11A0fir6sg-32" value="查看模版" style="html=1;verticalAlign=bottom;endArrow=block;curved=0;rounded=0;fontSize=15;" edge="1" parent="1" target="nOtRfNLZ3b11A0fir6sg-31">
          <mxGeometry width="80" relative="1" as="geometry">
            <mxPoint x="2480" y="1020" as="sourcePoint" />
            <mxPoint x="2560" y="1020" as="targetPoint" />
          </mxGeometry>
        </mxCell>
        <mxCell id="nOtRfNLZ3b11A0fir6sg-33" value="查询上架模版" style="html=1;verticalAlign=bottom;endArrow=block;curved=0;rounded=0;fontSize=15;" edge="1" parent="1" source="nOtRfNLZ3b11A0fir6sg-31">
          <mxGeometry width="80" relative="1" as="geometry">
            <mxPoint x="2960" y="1050" as="sourcePoint" />
            <mxPoint x="2880" y="1050" as="targetPoint" />
          </mxGeometry>
        </mxCell>
        <mxCell id="nOtRfNLZ3b11A0fir6sg-34" value="返回上架模版列表" style="html=1;verticalAlign=bottom;endArrow=open;dashed=1;endSize=8;curved=0;rounded=0;fontSize=15;" edge="1" parent="1" target="nOtRfNLZ3b11A0fir6sg-31">
          <mxGeometry relative="1" as="geometry">
            <mxPoint x="2880" y="1079" as="sourcePoint" />
            <mxPoint x="2960" y="1079" as="targetPoint" />
          </mxGeometry>
        </mxCell>
        <mxCell id="nOtRfNLZ3b11A0fir6sg-35" value="展示模版" style="html=1;verticalAlign=bottom;endArrow=open;dashed=1;endSize=8;curved=0;rounded=0;fontSize=15;" edge="1" parent="1">
          <mxGeometry relative="1" as="geometry">
            <mxPoint x="3010" y="1100" as="sourcePoint" />
            <mxPoint x="2480" y="1100" as="targetPoint" />
          </mxGeometry>
        </mxCell>
      </root>
    </mxGraphModel>
  </diagram>
</mxfile>
